# xmcd CD database file generated by Grip 3.2.0
# 
# Track frame offsets:
#       150
#       16894
#       30131
#       43683
#       55345
#       67377
#       78203
#       86734
#       99078
#       104166
#       113095
#       128339
#       141273
#       160278
# 
# Disc length: 2568 seconds
# 
# Revision: 1
# Processed by: cddbd v1.5.1PL2 Copyright (c) Steve Scherf et al.
# Submitted via: Grip 3.2.0
# 
DISCID=b00a060e
DTITLE=Dead Combo - Quando a alma não é pequena Vol. II
DYEAR=2006
DGENRE=Blues
TTITLE0=After peace, swim twice
TTITLE1=Quando a alma não é pequena
TTITLE2=A menina dança #1
TTITLE3=Rodada
TTITLE4=Ana (Strawb)
TTITLE5=O menon, o vento e o mar
TTITLE6=Canja voodoo
TTITLE7=Mr. Eastwood
TTITLE8=Ai que vida!
TTITLE9=Aquele beijo eterno
TTITLE10=O assobio (canção do avô)
TTITLE11=Despedida (até sempre)
TTITLE12=Esperanza (Bounty)
TTITLE13=Song for B.
EXTD=
EXTT0=
EXTT1=
EXTT2=
EXTT3=
EXTT4=
EXTT5=
EXTT6=
EXTT7=
EXTT8=
EXTT9=
EXTT10=
EXTT11=
EXTT12=
EXTT13=
PLAYORDER=
